<?xml version="1.0" standalone="no"?><!DOCTYPE svg PUBLIC "-//W3C//DTD SVG 1.1//EN" "http://www.w3.org/Graphics/SVG/1.1/DTD/svg11.dtd"><svg t="1606296522655" class="icon" viewBox="0 0 1024 1024" version="1.1" xmlns="http://www.w3.org/2000/svg" p-id="2099" xmlns:xlink="http://www.w3.org/1999/xlink" width="200" height="200"><defs><style type="text/css"></style></defs><path d="M960 1024H64c0-115.776 135.424-212.48 320-244.096v-47.36c-76.16-44.416-128-126.016-128-220.544v-6.464c-37.12-13.312-64-47.872-64-89.536 0-41.664 26.88-76.224 64-89.536V320c0-141.376 114.624-256 256-256s256 114.624 256 256v6.464c37.12 13.312 64 47.872 64 89.536 0 41.664-26.88 76.224-64 89.536V512c0 94.528-51.84 176.128-128 220.48v47.36C824.64 811.52 960 908.224 960 1024z" p-id="2100"></path></svg>