<svg xmlns="http://www.w3.org/2000/svg" xmlns:xlink="http://www.w3.org/1999/xlink" viewBox="0 0 205.44 172.62"><defs><style>.cls-1,.cls-3{fill:none;}.cls-2{clip-path:url(#clip-path);}.cls-3{stroke-miterlimit:10;stroke:url(#未命名的渐变_34);}.cls-4{fill:#f7f7f7;}.cls-5{fill:url(#未命名的渐变_40);}.cls-6{fill:#fff;}.cls-7{fill:#f2f2f2;}.cls-8{fill:url(#未命名的渐变_34-2);}.cls-9{fill:url(#未命名的渐变_34-3);}.cls-10{fill:url(#未命名的渐变_34-4);}</style><clipPath id="clip-path" transform="translate(-2.28 -19.38)"><rect class="cls-1" width="210" height="192"/></clipPath><linearGradient id="未命名的渐变_34" x1="46.01" y1="108.3" x2="167.68" y2="108.3" gradientUnits="userSpaceOnUse"><stop offset="0" stop-color="#ddd"/><stop offset="0.99" stop-color="#f2f2f2"/></linearGradient><linearGradient id="未命名的渐变_40" x1="164.65" y1="143.25" x2="66.61" y2="72.79" gradientUnits="userSpaceOnUse"><stop offset="0" stop-color="#bfbfbf"/><stop offset="0.99" stop-color="#f2f2f2"/></linearGradient><linearGradient id="未命名的渐变_34-2" x1="0" y1="152.57" x2="165.74" y2="152.57" xlink:href="#未命名的渐变_34"/><linearGradient id="未命名的渐变_34-3" x1="68.28" y1="178.97" x2="68.28" y2="179.97" gradientTransform="translate(-111.19 247.75) rotate(-90)" xlink:href="#未命名的渐变_34"/><linearGradient id="未命名的渐变_34-4" x1="165.54" y1="175.96" x2="165.54" y2="176.96" gradientTransform="translate(-10.92 342) rotate(-90)" xlink:href="#未命名的渐变_34"/></defs><title>暂无通知</title><g id="图层_2" data-name="图层 2"><g id="图层_1-2" data-name="图层 1"><g class="cls-2"><path class="cls-3" d="M55.48,65.29H157.84a9,9,0,0,1,9,8.89v57.35l.37,15.55a4.16,4.16,0,0,1-6.32,3.62l-13.79-8.44a3.56,3.56,0,0,0-2.23-.64H55.48a9,9,0,0,1-9-8.89V74.18A9,9,0,0,1,55.48,65.29Z" transform="translate(-2.28 -19.38)"/><circle class="cls-4" cx="125.72" cy="87.05" r="6"/><circle class="cls-4" cx="96.72" cy="87.05" r="6"/><circle class="cls-4" cx="66.72" cy="87.05" r="6"/><path class="cls-5" d="M181.25,75.73h-98a8.76,8.76,0,0,0-8.59,8.88v57.26l-.36,15.53a4,4,0,0,0,6,3.61l13.22-8.43a3.22,3.22,0,0,1,2.13-.63h85.6a8.76,8.76,0,0,0,8.59-8.88V84.61A8.76,8.76,0,0,0,181.25,75.73Z" transform="translate(-2.28 -19.38)"/><circle class="cls-6" cx="108.21" cy="94.51" r="4.78"/><circle class="cls-6" cx="131.32" cy="94.51" r="4.78"/><circle class="cls-6" cx="155.23" cy="94.51" r="4.78"/><polygon class="cls-7" points="141.83 29.66 143.61 36.34 150.21 38.13 143.61 39.93 141.83 46.61 140.05 39.93 133.45 38.13 140.05 36.34 141.83 29.66"/><polygon class="cls-7" points="163.61 0 166.46 10.68 177.02 13.56 166.46 16.43 163.61 27.12 160.77 16.43 150.21 13.56 160.77 10.68 163.61 0"/><rect class="cls-8" y="150.56" width="165.74" height="4.01" rx="2"/><rect class="cls-7" x="119.84" y="104.12" width="10.03" height="165.74" rx="5" transform="translate(309.56 42.76) rotate(90)"/><rect class="cls-9" x="67.78" y="139.27" width="1" height="80.39" rx="0.5" transform="translate(245.47 91.81) rotate(90)"/><rect class="cls-10" x="165.04" y="136.26" width="1" height="80.39" rx="0.5" transform="translate(339.72 -8.46) rotate(90)"/></g></g></g></svg>