<svg xmlns="http://www.w3.org/2000/svg" xmlns:xlink="http://www.w3.org/1999/xlink" viewBox="0 0 207.25 192"><defs><style>.cls-1{fill:none;}.cls-2{clip-path:url(#clip-path);}.cls-3{fill:url(#未命名的渐变_34);}.cls-4{fill:#f2f2f2;}.cls-5{fill:url(#未命名的渐变_34-2);}.cls-6{fill:url(#未命名的渐变_34-3);}.cls-7{fill:url(#未命名的渐变_37);}.cls-8{fill:url(#未命名的渐变_34-4);}.cls-9{fill:#fff;stroke-miterlimit:10;stroke:url(#未命名的渐变_34-5);}.cls-10{fill:url(#未命名的渐变_37-2);}.cls-11{fill:url(#未命名的渐变_37-3);}.cls-12{fill:url(#未命名的渐变_37-4);}.cls-13{fill:url(#未命名的渐变_37-5);}.cls-14{fill:url(#未命名的渐变_37-6);}.cls-15{fill:url(#未命名的渐变_37-7);}.cls-16{fill:url(#未命名的渐变_37-8);}.cls-17{fill:url(#未命名的渐变_37-9);}</style><clipPath id="clip-path" transform="translate(-2.28)"><rect class="cls-1" width="210" height="192"/></clipPath><linearGradient id="未命名的渐变_34" y1="171.95" x2="165.74" y2="171.95" gradientUnits="userSpaceOnUse"><stop offset="0" stop-color="#ddd"/><stop offset="0.99" stop-color="#f2f2f2"/></linearGradient><linearGradient id="未命名的渐变_34-2" x1="68.28" y1="178.97" x2="68.28" y2="179.97" gradientTransform="translate(-111.19 247.75) rotate(-90)" xlink:href="#未命名的渐变_34"/><linearGradient id="未命名的渐变_34-3" x1="165.54" y1="175.96" x2="165.54" y2="176.96" gradientTransform="translate(-10.92 342) rotate(-90)" xlink:href="#未命名的渐变_34"/><linearGradient id="未命名的渐变_37" x1="75.85" y1="80.09" x2="207.25" y2="80.09" gradientUnits="userSpaceOnUse"><stop offset="0" stop-color="#bfbfbf"/><stop offset="0.99" stop-color="#f2f2f2"/></linearGradient><linearGradient id="未命名的渐变_34-4" x1="-10.85" y1="95.47" x2="120.55" y2="95.47" gradientTransform="translate(51.07 2.21) rotate(-11.29)" xlink:href="#未命名的渐变_34"/><linearGradient id="未命名的渐变_34-5" x1="23.34" y1="108.09" x2="169.76" y2="108.09" xlink:href="#未命名的渐变_34"/><linearGradient id="未命名的渐变_37-2" x1="47.85" y1="84.99" x2="54.49" y2="84.99" gradientTransform="translate(43.29 -13.9) rotate(26.49)" xlink:href="#未命名的渐变_37"/><linearGradient id="未命名的渐变_37-3" x1="60.95" y1="68.13" x2="115.49" y2="68.13" xlink:href="#未命名的渐变_37"/><linearGradient id="未命名的渐变_37-4" x1="54.57" y1="99.63" x2="61.2" y2="99.63" gradientTransform="translate(50.52 -15.36) rotate(26.49)" xlink:href="#未命名的渐变_37"/><linearGradient id="未命名的渐变_37-5" x1="67.66" y1="82.77" x2="122.2" y2="82.77" xlink:href="#未命名的渐变_37"/><linearGradient id="未命名的渐变_37-6" x1="61.28" y1="114.27" x2="67.91" y2="114.27" gradientTransform="translate(57.76 -16.82) rotate(26.49)" xlink:href="#未命名的渐变_37"/><linearGradient id="未命名的渐变_37-7" x1="74.38" y1="97.41" x2="128.91" y2="97.41" xlink:href="#未命名的渐变_37"/><linearGradient id="未命名的渐变_37-8" x1="74.89" y1="49.2" x2="69.61" y2="34.22" xlink:href="#未命名的渐变_37"/><linearGradient id="未命名的渐变_37-9" x1="75.67" y1="48.92" x2="70.4" y2="33.94" xlink:href="#未命名的渐变_37"/></defs><title>暂无订单</title><g id="图层_2" data-name="图层 2"><g id="图层_1-2" data-name="图层 1"><g class="cls-2"><rect class="cls-3" y="169.94" width="165.74" height="4.01" rx="2"/><rect class="cls-4" x="119.84" y="104.12" width="10.03" height="165.74" rx="5" transform="translate(309.56 62.14) rotate(90)"/><rect class="cls-5" x="67.78" y="139.27" width="1" height="80.39" rx="0.5" transform="translate(245.47 111.19) rotate(90)"/><rect class="cls-6" x="165.04" y="136.26" width="1" height="80.39" rx="0.5" transform="translate(339.72 10.92) rotate(90)"/><polygon class="cls-7" points="167.97 160.18 75.85 133.24 115.13 0 207.25 26.93 167.97 160.18"/><polygon class="cls-8" points="165.15 158.45 69.53 150.08 81.95 11.72 177.57 20.1 165.15 158.45"/><polygon class="cls-9" points="169.1 151.09 81.96 191.33 24 65.09 111.14 24.85 169.1 151.09"/><ellipse class="cls-10" cx="51.17" cy="84.99" rx="3.29" ry="3.44" transform="translate(-34.82 31.75) rotate(-26.49)"/><path class="cls-11" d="M114.18,58.87l-50,22.74a2.24,2.24,0,0,1-3-1.1l-.08-.17a2.24,2.24,0,0,1,1.1-3l50-22.74a2.25,2.25,0,0,1,3,1.1l.07.17A2.22,2.22,0,0,1,114.18,58.87Z" transform="translate(-2.28)"/><ellipse class="cls-12" cx="57.88" cy="99.63" rx="3.29" ry="3.44" transform="translate(-40.65 36.29) rotate(-26.49)"/><path class="cls-13" d="M120.89,73.51l-50,22.74a2.24,2.24,0,0,1-3-1.1L67.86,95A2.23,2.23,0,0,1,69,92l50-22.74a2.24,2.24,0,0,1,3,1.1l.08.17A2.23,2.23,0,0,1,120.89,73.51Z" transform="translate(-2.28)"/><ellipse class="cls-14" cx="64.6" cy="114.27" rx="3.29" ry="3.44" transform="translate(-46.47 40.82) rotate(-26.49)"/><path class="cls-15" d="M127.61,88.15l-50,22.74a2.26,2.26,0,0,1-3-1.1l-.07-.17a2.23,2.23,0,0,1,1.1-3l50-22.74a2.26,2.26,0,0,1,3,1.1l.07.17A2.23,2.23,0,0,1,127.61,88.15Z" transform="translate(-2.28)"/><path class="cls-16" d="M86.21,38.32l-25.84,11c-2.82,1.21-5.86.46-6.77-1.65s.66-4.81,3.48-6l25.84-11c2.81-1.2,5.86-.46,6.77,1.65S89,37.12,86.21,38.32Z" transform="translate(-2.28)"/><path class="cls-17" d="M60.88,48.64,62,51.33l8.44-3.6a10.5,10.5,0,0,1,8.45-3.6l8.5-3.62-1-2.29.36-.16.91,2.12a.5.5,0,0,1-.31.76l-8.5,3.62A9.75,9.75,0,0,0,70.82,48l-8.49,3.62c-.32.14-.56.11-.76-.36L60.51,48.8Z" transform="translate(-2.28)"/><polygon class="cls-4" points="11.21 35.09 13.31 42.99 21.13 45.12 13.31 47.24 11.21 55.14 9.1 47.24 1.28 45.12 9.1 42.99 11.21 35.09"/><polygon class="cls-4" points="37.01 0 40.38 12.64 52.89 16.04 40.38 19.45 37.01 32.08 33.65 19.45 21.13 16.04 33.65 12.64 37.01 0"/></g></g></g></svg>