<svg t="1608128648411" class="icon" viewBox="0 0 1039 1024" version="1.1" xmlns="http://www.w3.org/2000/svg" p-id="6151" id="mx_n_1608128648412" width="200" height="200" fill="#333333"><path d="M91.247525 131.80198S35.485149 481.584158 466.376238 395.405941s324.435644 451.168317 91.247524 496.792079h45.623763s258.534653-40.554455 339.643564-283.881188 30.415842-456.237624-228.118812-547.485149c0 0-111.524752-35.485149-314.297029 65.90099s-309.227723 5.069307-309.227723 5.069307z" fill="#17a2b8" p-id="6152"></path><path d="M385.267327 354.851485s-81.108911-5.069307-116.59406-30.415841c0 0 106.455446-20.277228 111.524753-60.831684 0 0-76.039604-40.554455-136.871287-30.415841 0 0 86.178218-30.415842 86.178217-60.831683a185.891485 185.891485 0 0 1-103.870099 0.811089C136.871287 173.167525 91.247525 131.80198 91.247525 131.80198S48.766733 398.548911 324.993267 408.738218C363.621386 390.336634 378.727921 381.110495 385.267327 354.851485z" fill="#2dcde5" p-id="6153"></path><path d="M628.594059 862.897426a120.852277 120.852277 0 0 0-58.854653-23.825743c-40.554455-4.308911-51.098614 42.93703-16.069703 69.094654l108.635247 81.108911c26.816634-35.941386 11.912871-92.514851-33.710891-126.377822z" fill="#2dcde5" p-id="6154"></path></svg>